<?xml version="1.0" encoding="UTF-8" standalone="no"?>
<svg width="217px" height="271px" viewBox="0 0 217 271" version="1.1" xmlns="http://www.w3.org/2000/svg" xmlns:xlink="http://www.w3.org/1999/xlink" xmlns:sketch="http://www.bohemiancoding.com/sketch/ns">
    <!-- Generator: Sketch 3.0.4 (8054) - http://www.bohemiancoding.com/sketch -->
    <title>_ObjC 2</title>
    <desc>Created with Sketch.</desc>
    <defs></defs>
    <g id="Page-1" stroke="none" stroke-width="1" fill="none" fill-rule="evenodd" sketch:type="MSPage">
        <g id="_ObjC" sketch:type="MSLayerGroup">
            <g id="Layer-2" fill="#000000" sketch:type="MSShapeGroup">
                <g id="Layer-1">
                    <path d="M145.378641,0 L215,132.391304 L83.6019417,203 L13,70.6086957 L145.378641,0 Z" id="Shape"></path>
                    <path d="M0,149 L12,77 L80,206 L64,269 L0,149 L0,149 Z" id="Shape"></path>
                    <path d="M86,207 L68,271 L193,204 L217,138 L86,207 L86,207 Z" id="Shape"></path>
                </g>
            </g>
            <path d="M137.565678,84.8987899 C137.565678,84.8987899 135.711526,67.7196035 118.559085,67.2425542 C101.406644,66.765505 92.5975481,80.126944 92.5975481,99.2146658 C92.5975481,118.302388 102.333039,133.573377 119.022112,133.573377 C135.711526,133.573377 137.565678,114.485655 137.565678,114.485655 L169.553039,116.394191 C169.553039,116.394191 171.436471,133.6336 158.050895,146.786288 C144.664977,159.937961 128.234995,162.086712 116.761109,161.997392 C105.287222,161.906381 89.3788269,162.176032 73.9947421,146.51799 C58.6106573,130.859948 56,115.648843 56,100.706713 C56,85.7639069 58.917413,65.9690696 77.2093778,50.9582581 C89.6409821,40.7582008 102.243157,37 114.847376,37 C167.466012,37 171,85.227311 171,85.227311 L137.565678,84.8987899 L137.565678,84.8987899 Z" id="path3" fill="#FFFFFF" sketch:type="MSShapeGroup" transform="translate(113.500000, 99.500000) rotate(-27.500000) translate(-113.500000, -99.500000) "></path>
        </g>
    </g>
</svg>